<?xml version="1.0" encoding="UTF-8"?>
<svg id="Capa_1" xmlns="http://www.w3.org/2000/svg" version="1.1" viewBox="0 0 753.88 305">
  <!-- Generator: Adobe Illustrator 30.7.0, SVG Export Plug-In . SVG Version: 2.1.4 Build 114)  -->
  <defs>
    <style>
      .st0 {
        fill: #e2281e;
      }

      .st1 {
        fill: #fff;
      }

      .st2 {
        fill: #676e73;
      }
    </style>
  </defs>
  <g>
    <path class="st1" d="M254.37,221.09v-111.53h37.92v128.69h-.06c-.87,20.14-17.73,30.67-34.38,30.67h-3.48v-47.83h0Z"/>
    <path class="st1" d="M273.33,41.84c-10.47,0-18.96,8.48-18.96,18.95s8.5,18.94,18.96,18.94,18.93-8.51,18.93-18.94-8.49-18.95-18.93-18.95"/>
    <path class="st1" d="M57.57,221.09v-111.53H19.67v128.69h.04c.89,20.14,17.74,30.67,34.4,30.67h3.46v-47.83h0Z"/>
    <path class="st1" d="M38.65,41.84c-10.47,0-18.95,8.48-18.95,18.95s8.48,18.94,18.95,18.94,18.92-8.51,18.92-18.94-8.47-18.95-18.92-18.95"/>
    <path class="st1" d="M348.75,171.71c.1-.29.23-.55.34-.85,9.24-22.02,28.09-29.89,42.66-29.89,5.23,0,10.38,1.01,14.91,2.91,11.2,4.71,19.6,14.88,23.07,27.68l-80.98.16h0ZM420.09,111.84c-9.34-3.92-19.2-5.89-29.31-5.89-32.59,0-62.09,20.08-75.13,51.2-8.55,20.39-8.88,42.54-.97,62.4,7.93,19.87,23.34,35.45,43.38,43.87,10.99,4.6,21.93,6.93,32.58,6.93,12.76,0,24.96-3.4,36.18-9.96.52-.2,1.05-.45,1.52-.74,7.5-4.64,15.62-11.84,21.87-19.13l2.76-2.98-.25-.11c1.74-2.24,3.29-4.44,4.53-6.56l1.5-2.56-1.87-2.25c-4.91-5.83-12.38-9.14-20.53-9.14-7.2,0-14.35,2.66-20.13,7.47-1.25,1.03-2.35,2.13-3.33,3.28-7.47,5.2-15.05,7.72-23.08,7.72-5.79,0-11.94-1.36-18.29-3.99-11.56-4.86-20.19-13.95-24.23-25.31l117.53-.37.9-5.06c6.81-38.18-11.93-74.68-45.62-88.81"/>
    <path class="st0" d="M153.38,234.71c-23.67,0-42.18-20.86-42.18-47.48s18.52-46.95,42.18-46.95,42.19,21.06,42.19,46.95-18.91,47.48-42.19,47.48M232.05,187.23V33.91h-35.93v75.85h-.07v10.82c-12.3-9.81-27.34-15.1-43.23-15.1-43.96,0-78.38,35.9-78.38,81.75s34.68,82.28,78.95,82.28c17.6,0,34.12-5.68,47.57-16.14,6.86,10.74,19.77,15.39,30.77,15.39v-51.1h0v-22.91c.2-2.47.32-5.01.32-7.53"/>
    <path class="st1" d="M727.28,120.74c1.54,0,2.88-.13,2.88-1.94,0-1.49-1.46-1.66-2.7-1.66h-2.45v3.61h2.27,0ZM725.02,127.79h-2.04v-12.4h4.71c2.99,0,4.51,1.05,4.51,3.56,0,2.26-1.38,3.18-3.23,3.37l3.47,5.47h-2.32l-3.2-5.31h-1.91v5.31h.01ZM727.23,112.13c-4.84,0-8.59,3.81-8.59,9.26,0,5.07,3.27,9.25,8.59,9.25,4.8,0,8.57-3.78,8.57-9.25s-3.77-9.26-8.57-9.26M727.23,132.56c-6.42,0-11.01-4.81-11.01-11.18,0-6.74,5.09-11.22,11.01-11.22s10.96,4.47,10.96,11.22-5.09,11.18-10.96,11.18"/>
    <path class="st1" d="M579.03,237.92c0,21.25,17.35,32.39,34.48,32.39h3.48v-94.71c0-17.49,11.6-29.69,28.18-29.69s28.18,12.2,28.18,29.69v65.81h.18c1.77,18.98,18.12,28.9,34.3,28.9h3.51v-93.78c0-38.5-27.85-66.48-66.16-66.48-19.34,0-35.94,7.58-47.27,21.45-11.09-13.67-27.94-21.45-47.06-21.45-38.33,0-66.14,27.98-66.14,66.48v94.19-.03h3.48c16.68,0,33.62-10.55,34.49-30.73v-64.36c0-17.49,11.58-29.69,28.18-29.69s28.19,12.2,28.19,29.69v62.32h-.02Z"/>
  </g>
  <g>
    <path class="st2" d="M253.51,566.87v-111.53h37.91v128.69h-.06c-.87,20.14-17.73,30.67-34.38,30.67h-3.48v-47.83h0Z"/>
    <path class="st2" d="M272.47,387.62c-10.47,0-18.96,8.48-18.96,18.95s8.5,18.94,18.96,18.94,18.93-8.51,18.93-18.94-8.49-18.95-18.93-18.95"/>
    <path class="st2" d="M56.71,566.87v-111.53H18.81v128.69h.04c.89,20.14,17.74,30.67,34.4,30.67h3.46v-47.83h0Z"/>
    <path class="st2" d="M37.78,387.62c-10.47,0-18.95,8.48-18.95,18.95s8.48,18.94,18.95,18.94,18.92-8.51,18.92-18.94-8.47-18.95-18.92-18.95"/>
    <path class="st2" d="M347.88,517.49c.1-.29.23-.55.34-.85,9.24-22.02,28.09-29.89,42.66-29.89,5.23,0,10.38,1.01,14.91,2.91,11.2,4.71,19.6,14.88,23.07,27.68l-80.98.16h0ZM419.22,457.62c-9.34-3.92-19.2-5.89-29.31-5.89-32.59,0-62.09,20.08-75.13,51.2-8.55,20.39-8.88,42.54-.97,62.4,7.93,19.87,23.34,35.45,43.38,43.87,10.99,4.6,21.93,6.93,32.58,6.93,12.76,0,24.96-3.4,36.18-9.96.52-.2,1.05-.45,1.52-.74,7.5-4.64,15.62-11.84,21.87-19.13l2.51-3.09c1.74-2.24,3.29-4.44,4.53-6.56l1.5-2.56-1.87-2.25c-4.91-5.83-12.38-9.14-20.53-9.14-7.2,0-14.35,2.66-20.13,7.47-.62.51-1.21,1.05-1.76,1.59-1.29,1.27-2.66,2.47-4.21,3.41-6.61,4.03-13.35,6-20.44,6-5.79,0-11.94-1.36-18.29-3.99-11.56-4.86-20.19-13.95-24.23-25.31l117.53-.37.9-5.06c6.81-38.18-11.93-74.68-45.62-88.81"/>
    <path class="st0" d="M152.52,580.49c-23.67,0-42.18-20.86-42.18-47.48s18.52-46.95,42.18-46.95,42.19,21.06,42.19,46.95-18.91,47.48-42.19,47.48M231.18,533.01v-153.32h-35.93v75.85h-.07v10.82c-12.3-9.81-27.34-15.1-43.23-15.1-43.96,0-78.38,35.9-78.38,81.75s34.68,82.28,78.95,82.28c17.6,0,34.12-5.68,47.57-16.14,6.86,10.74,19.77,15.39,30.77,15.39v-51.1h0v-22.91c.2-2.47.32-5.01.32-7.53"/>
    <path class="st2" d="M726.42,466.52c1.54,0,2.88-.13,2.88-1.94,0-1.49-1.46-1.66-2.7-1.66h-2.45v3.61h2.27ZM724.15,473.57h-2.04v-12.4h4.71c2.99,0,4.51,1.05,4.51,3.56,0,2.26-1.38,3.18-3.23,3.37l3.47,5.47h-2.32l-3.2-5.31h-1.91v5.31h.01ZM726.36,457.91c-4.84,0-8.59,3.81-8.59,9.26,0,5.07,3.27,9.25,8.59,9.25,4.8,0,8.57-3.78,8.57-9.25s-3.77-9.26-8.57-9.26M726.36,478.34c-6.42,0-11.01-4.81-11.01-11.18,0-6.74,5.09-11.22,11.01-11.22s10.96,4.47,10.96,11.22-5.09,11.18-10.96,11.18"/>
    <path class="st2" d="M578.17,583.7c0,21.25,17.35,32.39,34.48,32.39h3.48v-94.71c0-17.49,11.6-29.69,28.18-29.69s28.18,12.2,28.18,29.69v62.32l.18,3.49c1.77,18.98,18.12,28.9,34.3,28.9h3.51v-93.78c0-38.5-27.85-66.48-66.16-66.48-19.34,0-35.94,7.58-47.27,21.45-11.09-13.67-27.94-21.45-47.06-21.45-38.33,0-66.14,27.98-66.14,66.48v94.19-.03h3.48c16.68,0,33.62-10.55,34.49-30.73v-64.36c0-17.49,11.58-29.69,28.18-29.69s28.19,12.2,28.19,29.69v62.32h-.02Z"/>
  </g>
</svg>